{
	"asset":{
		"generator":"Khronos glTF Blender I/O v5.1.20",
		"version":"2.0"
	},
	"scene":0,
	"scenes":[
		{
			"name":"Scene",
			"nodes":[
				6
			]
		}
	],
	"nodes":[
		{
			"name":"UpperSway",
			"translation":[
				0,
				1.0900408029556274,
				0
			]
		},
		{
			"children":[
				0
			],
			"name":"RootFixed",
			"translation":[
				0,
				-1.7303738594055176,
				0
			]
		},
		{
			"mesh":0,
			"name":"Cloud_Textured",
			"skin":0
		},
		{
			"children":[
				1
			],
			"name":"ClouDS_Rhythm_Rig"
		},
		{
			"mesh":1,
			"name":"Front_Decorations",
			"skin":0
		},
		{
			"mesh":2,
			"name":"Headphones",
			"skin":0
		},
		{
			"children":[
				2,
				3,
				4,
				5
			],
			"name":"world"
		}
	],
	"animations":[
		{
			"channels":[
				{
					"sampler":0,
					"target":{
						"node":1,
						"path":"translation"
					}
				},
				{
					"sampler":1,
					"target":{
						"node":1,
						"path":"rotation"
					}
				},
				{
					"sampler":2,
					"target":{
						"node":1,
						"path":"scale"
					}
				},
				{
					"sampler":3,
					"target":{
						"node":0,
						"path":"translation"
					}
				},
				{
					"sampler":4,
					"target":{
						"node":0,
						"path":"rotation"
					}
				},
				{
					"sampler":5,
					"target":{
						"node":0,
						"path":"scale"
					}
				}
			],
			"name":"ClouDS_Rhythm_Idle",
			"samplers":[
				{
					"input":19,
					"interpolation":"STEP",
					"output":20
				},
				{
					"input":19,
					"interpolation":"STEP",
					"output":21
				},
				{
					"input":19,
					"interpolation":"STEP",
					"output":22
				},
				{
					"input":19,
					"interpolation":"STEP",
					"output":23
				},
				{
					"input":24,
					"interpolation":"LINEAR",
					"output":25
				},
				{
					"input":24,
					"interpolation":"LINEAR",
					"output":26
				}
			]
		}
	],
	"materials":[
		{
			"name":"ClouDS_Pixel_Gradient_Cloud",
			"pbrMetallicRoughness":{
				"baseColorTexture":{
					"index":0
				},
				"metallicFactor":0,
				"roughnessFactor":0.6200000047683716
			}
		},
		{
			"doubleSided":true,
			"name":"DefaultMaterial.001",
			"pbrMetallicRoughness":{
				"metallicFactor":0,
				"roughnessFactor":0.5
			}
		},
		{
			"doubleSided":true,
			"name":"DefaultMaterial",
			"pbrMetallicRoughness":{
				"metallicFactor":0,
				"roughnessFactor":0.5
			}
		}
	],
	"meshes":[
		{
			"name":"Cloud_Textured",
			"primitives":[
				{
					"attributes":{
						"POSITION":0,
						"NORMAL":1,
						"TEXCOORD_0":2,
						"JOINTS_0":3,
						"WEIGHTS_0":4
					},
					"indices":5,
					"material":0
				}
			]
		},
		{
			"name":"Front_Decorations",
			"primitives":[
				{
					"attributes":{
						"POSITION":7,
						"NORMAL":8,
						"COLOR_0":9,
						"JOINTS_0":10,
						"WEIGHTS_0":11
					},
					"indices":12,
					"material":1
				}
			]
		},
		{
			"name":"Headphones",
			"primitives":[
				{
					"attributes":{
						"POSITION":13,
						"NORMAL":14,
						"COLOR_0":15,
						"JOINTS_0":16,
						"WEIGHTS_0":17
					},
					"indices":18,
					"material":2
				}
			]
		}
	],
	"textures":[
		{
			"sampler":0,
			"source":0
		}
	],
	"images":[
		{
			"mimeType":"image/png",
			"name":"ClouDS_PixelGradient_Texture_128",
			"uri":"ClouDS_PixelGradient_Texture_128.png"
		}
	],
	"skins":[
		{
			"inverseBindMatrices":6,
			"joints":[
				1,
				0
			],
			"name":"ClouDS_Rhythm_Rig"
		}
	],
	"accessors":[
		{
			"bufferView":0,
			"componentType":5126,
			"count":4821,
			"max":[
				2.299999952316284,
				1.7303738594055176,
				0.38733330368995667
			],
			"min":[
				-2.299999952316284,
				-1.7303738594055176,
				-0.3870164453983307
			],
			"type":"VEC3"
		},
		{
			"bufferView":1,
			"componentType":5126,
			"count":4821,
			"type":"VEC3"
		},
		{
			"bufferView":2,
			"componentType":5126,
			"count":4821,
			"type":"VEC2"
		},
		{
			"bufferView":3,
			"componentType":5121,
			"count":4821,
			"type":"VEC4"
		},
		{
			"bufferView":4,
			"componentType":5126,
			"count":4821,
			"type":"VEC4"
		},
		{
			"bufferView":5,
			"componentType":5123,
			"count":6000,
			"type":"SCALAR"
		},
		{
			"bufferView":6,
			"componentType":5126,
			"count":2,
			"type":"MAT4"
		},
		{
			"bufferView":7,
			"componentType":5126,
			"count":108,
			"max":[
				1.440000057220459,
				0.4333333373069763,
				0.5049999952316284
			],
			"min":[
				-0.5366666913032532,
				-1.2999999523162842,
				0.35499998927116394
			],
			"type":"VEC3"
		},
		{
			"bufferView":8,
			"componentType":5126,
			"count":108,
			"type":"VEC3"
		},
		{
			"bufferView":9,
			"componentType":5126,
			"count":108,
			"type":"VEC3"
		},
		{
			"bufferView":10,
			"componentType":5121,
			"count":108,
			"type":"VEC4"
		},
		{
			"bufferView":11,
			"componentType":5126,
			"count":108,
			"type":"VEC4"
		},
		{
			"bufferView":12,
			"componentType":5123,
			"count":156,
			"type":"SCALAR"
		},
		{
			"bufferView":13,
			"componentType":5126,
			"count":1056,
			"max":[
				2.7620387077331543,
				2.306814193725586,
				0.7632441520690918
			],
			"min":[
				-2.7620387077331543,
				-0.8499999046325684,
				-0.724646270275116
			],
			"type":"VEC3"
		},
		{
			"bufferView":14,
			"componentType":5126,
			"count":1056,
			"type":"VEC3"
		},
		{
			"bufferView":15,
			"componentType":5126,
			"count":1056,
			"type":"VEC3"
		},
		{
			"bufferView":16,
			"componentType":5121,
			"count":1056,
			"type":"VEC4"
		},
		{
			"bufferView":17,
			"componentType":5126,
			"count":1056,
			"type":"VEC4"
		},
		{
			"bufferView":18,
			"componentType":5123,
			"count":1416,
			"type":"SCALAR"
		},
		{
			"bufferView":19,
			"componentType":5126,
			"count":2,
			"max":[
				1.2
			],
			"min":[
				0
			],
			"type":"SCALAR"
		},
		{
			"bufferView":20,
			"componentType":5126,
			"count":2,
			"type":"VEC3"
		},
		{
			"bufferView":21,
			"componentType":5126,
			"count":2,
			"type":"VEC4"
		},
		{
			"bufferView":22,
			"componentType":5126,
			"count":2,
			"type":"VEC3"
		},
		{
			"bufferView":23,
			"componentType":5126,
			"count":2,
			"type":"VEC3"
		},
		{
			"bufferView":24,
			"componentType":5126,
			"count":37,
			"max":[
				1.2
			],
			"min":[
				0
			],
			"type":"SCALAR"
		},
		{
			"bufferView":25,
			"componentType":5126,
			"count":37,
			"type":"VEC4"
		},
		{
			"bufferView":26,
			"componentType":5126,
			"count":37,
			"type":"VEC3"
		}
	],
	"bufferViews":[
		{
			"buffer":0,
			"byteLength":57852,
			"byteOffset":0,
			"target":34962
		},
		{
			"buffer":0,
			"byteLength":57852,
			"byteOffset":57852,
			"target":34962
		},
		{
			"buffer":0,
			"byteLength":38568,
			"byteOffset":115704,
			"target":34962
		},
		{
			"buffer":0,
			"byteLength":19284,
			"byteOffset":154272,
			"target":34962
		},
		{
			"buffer":0,
			"byteLength":77136,
			"byteOffset":173556,
			"target":34962
		},
		{
			"buffer":0,
			"byteLength":12000,
			"byteOffset":250692,
			"target":34963
		},
		{
			"buffer":0,
			"byteLength":128,
			"byteOffset":262692
		},
		{
			"buffer":0,
			"byteLength":1296,
			"byteOffset":262820,
			"target":34962
		},
		{
			"buffer":0,
			"byteLength":1296,
			"byteOffset":264116,
			"target":34962
		},
		{
			"buffer":0,
			"byteLength":1296,
			"byteOffset":265412,
			"target":34962
		},
		{
			"buffer":0,
			"byteLength":432,
			"byteOffset":266708,
			"target":34962
		},
		{
			"buffer":0,
			"byteLength":1728,
			"byteOffset":267140,
			"target":34962
		},
		{
			"buffer":0,
			"byteLength":312,
			"byteOffset":268868,
			"target":34963
		},
		{
			"buffer":0,
			"byteLength":12672,
			"byteOffset":269180,
			"target":34962
		},
		{
			"buffer":0,
			"byteLength":12672,
			"byteOffset":281852,
			"target":34962
		},
		{
			"buffer":0,
			"byteLength":12672,
			"byteOffset":294524,
			"target":34962
		},
		{
			"buffer":0,
			"byteLength":4224,
			"byteOffset":307196,
			"target":34962
		},
		{
			"buffer":0,
			"byteLength":16896,
			"byteOffset":311420,
			"target":34962
		},
		{
			"buffer":0,
			"byteLength":2832,
			"byteOffset":328316,
			"target":34963
		},
		{
			"buffer":0,
			"byteLength":8,
			"byteOffset":331148
		},
		{
			"buffer":0,
			"byteLength":24,
			"byteOffset":331156
		},
		{
			"buffer":0,
			"byteLength":32,
			"byteOffset":331180
		},
		{
			"buffer":0,
			"byteLength":24,
			"byteOffset":331212
		},
		{
			"buffer":0,
			"byteLength":24,
			"byteOffset":331236
		},
		{
			"buffer":0,
			"byteLength":148,
			"byteOffset":331260
		},
		{
			"buffer":0,
			"byteLength":592,
			"byteOffset":331408
		},
		{
			"buffer":0,
			"byteLength":444,
			"byteOffset":332000
		}
	],
	"samplers":[
		{
			"magFilter":9728,
			"minFilter":9984,
			"wrapS":33071,
			"wrapT":33071
		}
	],
	"buffers":[
		{
			"byteLength":332444,
			"uri":"clouds-banner-rhythm.bin"
		}
	]
}
